<!DOCTYPE svg PUBLIC "-//W3C//DTD SVG 1.1//EN" "http://www.w3.org/Graphics/SVG/1.1/DTD/svg11.dtd">
<!-- Uploaded to: SVG Repo, www.svgrepo.com, Transformed by: SVG Repo Mixer Tools -->
<svg width="800px" height="800px" viewBox="0 0 128 128" xmlns="http://www.w3.org/2000/svg" xmlns:xlink="http://www.w3.org/1999/xlink" aria-hidden="true" role="img" class="iconify iconify--noto" preserveAspectRatio="xMidYMid meet" fill="#000000">
<g id="SVGRepo_bgCarrier" stroke-width="0"/>
<g id="SVGRepo_tracerCarrier" stroke-linecap="round" stroke-linejoin="round"/>
<g id="SVGRepo_iconCarrier">
<path d="M108.54 15.2H86.65c-1.31 0-2.36 1.06-2.36 2.36v62.91L43.35 16.29a2.35 2.35 0 0 0-1.99-1.09h-21.9c-1.3 0-2.36 1.06-2.36 2.36v100.97c0 1.3 1.06 2.36 2.36 2.36h21.9c1.3 0 2.37-1.06 2.37-2.36V55.61l40.93 64.18c.43.68 1.19 1.09 2 1.09h21.89c1.3 0 2.36-1.06 2.36-2.36V17.56a2.38 2.38 0 0 0-2.37-2.36z" fill="#007bff"/>
</g>
</svg>