<svg viewBox="0 0 64 64" fill="none" xmlns="http://www.w3.org/2000/svg"><g id="SVGRepo_bgCarrier" stroke-width="0"></g><g id="SVGRepo_tracerCarrier" stroke-linecap="round" stroke-linejoin="round"></g><g id="SVGRepo_iconCarrier"> <path fill-rule="evenodd" clip-rule="evenodd" d="M34.1497 19.5249L11.7961 29.1286L20.1755 49.3362L42.0525 39.7326L34.0744 19.5249H34.1497Z" fill="#2A2941"></path> <path fill-rule="evenodd" clip-rule="evenodd" d="M36.0815 15.6484L13.7279 25.2521L22.1073 45.4598L44.0595 35.8561L36.0815 15.6484Z" fill="white"></path> <path fill-rule="evenodd" clip-rule="evenodd" d="M31.8666 35.5561C35.2786 34.2306 37.0599 35.8563 38.0383 37.9571L38.2892 38.5573L29.0066 42.4088L28.831 42.0086C27.6267 39.1575 28.5048 36.8817 31.8666 35.5561Z" fill="#32EDBB"></path> <path fill-rule="evenodd" clip-rule="evenodd" d="M31.691 35.131C30.9384 35.3561 30.261 35.7312 29.6589 36.2314C29.0568 36.7316 28.5801 37.3318 28.2038 38.0321C27.9278 38.7073 27.8274 39.4076 27.8525 40.1329C27.8776 40.8581 28.0532 41.5584 28.3794 42.1837L28.555 42.6088L28.7306 43.009L38.8662 38.8074L38.6906 38.3822C38.6906 38.3822 38.515 37.957 38.4397 37.782C37.9631 36.6315 37.1352 35.6812 36.0564 35.081C35.379 34.7808 34.6263 34.6058 33.8486 34.6308C33.1211 34.6058 32.3684 34.8058 31.691 35.131ZM29.2324 41.7835C28.9815 41.2583 28.831 40.6831 28.8059 40.1079C28.7808 39.5326 28.8811 38.9324 29.0819 38.4072C29.3829 37.832 29.8094 37.3318 30.3112 36.9066C30.8129 36.4815 31.4151 36.1814 32.0423 36.0063C32.5942 35.7312 33.2214 35.5811 33.8235 35.5561C34.4507 35.5311 35.0779 35.6562 35.6299 35.9063C36.508 36.4315 37.2104 37.2068 37.5868 38.1571L37.662 38.3072L29.2324 41.7835Z" fill="#2A2941"></path> <path fill-rule="evenodd" clip-rule="evenodd" d="M45.063 36.2063L36.5331 14.5481L12.7243 24.777L21.7059 46.4102L45.063 36.2063ZM35.655 16.5739L43.0309 35.356L22.5087 44.3344L14.7314 25.5773L35.655 16.5739Z" fill="#2A2941"></path> <path fill-rule="evenodd" clip-rule="evenodd" d="M15.484 30.8293L38.8662 20.7505L38.2641 19.325L14.8819 29.4038L15.484 30.8293Z" fill="#2A2941"></path> <path fill-rule="evenodd" clip-rule="evenodd" d="M16.5879 27.9283L18.2688 27.228L17.6667 25.8025L15.9858 26.5028L16.5879 27.9283Z" fill="#2A2941"></path> <path fill-rule="evenodd" clip-rule="evenodd" d="M19.5232 26.7027L21.2042 26.0024L20.602 24.5769L18.9211 25.2772L19.5232 26.7027Z" fill="#2A2941"></path> <path fill-rule="evenodd" clip-rule="evenodd" d="M22.3833 25.5272L24.0642 24.8269L23.4621 23.4014L21.7812 24.1016L22.3833 25.5272Z" fill="#2A2941"></path> <path d="M23.1861 34.4806C24.3151 34.4806 25.2183 33.6052 25.2183 32.5048C25.2183 31.4044 24.3151 30.5291 23.1861 30.5291C22.0572 30.5291 21.154 31.4044 21.154 32.5048C21.154 33.6052 22.0822 34.4806 23.1861 34.4806Z" fill="#FEC34E"></path> <path fill-rule="evenodd" clip-rule="evenodd" d="M23.1861 30.054C22.7094 30.054 22.2328 30.204 21.8314 30.4791C21.43 30.7542 21.1289 31.1294 20.9533 31.5795C20.7777 32.0297 20.7275 32.5049 20.8278 32.9801C20.9282 33.4552 21.154 33.8804 21.5052 34.2305C21.8564 34.5557 22.2829 34.8058 22.7596 34.8808C23.2363 34.9558 23.713 34.9308 24.1646 34.7307C24.6162 34.5557 24.9925 34.2305 25.2684 33.8304C25.5444 33.4302 25.6699 32.9551 25.6699 32.4799C25.6699 32.1548 25.5946 31.8296 25.4692 31.5295C25.3437 31.2294 25.1681 30.9543 24.9172 30.7292C24.6914 30.5041 24.4154 30.3291 24.1144 30.204C23.8384 30.129 23.5123 30.054 23.1861 30.054ZM23.1861 31.0043C23.4872 31.0043 23.7632 31.1044 24.014 31.2794C24.2649 31.4545 24.4405 31.6796 24.5409 31.9547C24.6412 32.2298 24.6663 32.5299 24.6162 32.83C24.5409 33.1301 24.4154 33.3802 24.1897 33.5803C23.9639 33.7804 23.713 33.9304 23.4119 33.9804C23.1109 34.0305 22.8098 34.0055 22.5589 33.8804C22.283 33.7554 22.0572 33.5803 21.8815 33.3302C21.7059 33.0801 21.6307 32.805 21.6307 32.5049C21.6307 32.1047 21.8063 31.7046 22.1073 31.4295C22.4084 31.1544 22.7847 31.0043 23.1861 31.0043Z" fill="#2A2941"></path> <path d="M34.1497 29.0285C35.1783 29.0285 36.0062 28.1782 36.0062 27.1278C36.0062 26.0774 35.1783 25.2271 34.1497 25.2271C33.121 25.2271 32.2931 26.0774 32.2931 27.1278C32.2931 28.1782 33.121 29.0285 34.1497 29.0285Z" fill="#FEC34E"></path> <path fill-rule="evenodd" clip-rule="evenodd" d="M34.1497 24.7771C33.673 24.7771 33.2214 24.9021 32.82 25.1522C32.4186 25.4023 32.1175 25.7775 31.9168 26.2026C31.7161 26.6278 31.6659 27.103 31.7663 27.5782C31.8416 28.0283 32.0673 28.4785 32.3935 28.8036C32.7196 29.1288 33.1461 29.3788 33.5977 29.4539C34.0493 29.5539 34.5511 29.5039 34.9776 29.3288C35.4041 29.1538 35.7804 28.8536 36.0564 28.4535C36.3072 28.0533 36.4578 27.6032 36.4578 27.128C36.4578 26.8279 36.4076 26.5028 36.2822 26.2277C36.1567 25.9525 36.0062 25.6774 35.7804 25.4524C35.5546 25.2273 35.3037 25.0522 35.0278 24.9272C34.7518 24.8271 34.4507 24.7771 34.1497 24.7771ZM34.1497 25.7025C34.4256 25.7025 34.7267 25.7775 34.9776 25.9275C35.2285 26.0776 35.4041 26.3027 35.5295 26.5528C35.655 26.8029 35.68 27.103 35.6299 27.3781C35.5797 27.6532 35.4543 27.9283 35.2535 28.1284C35.0528 28.3284 34.802 28.4785 34.526 28.5285C34.25 28.5785 33.949 28.5535 33.673 28.4535C33.397 28.3535 33.1712 28.1534 33.0207 27.9283C32.8702 27.6782 32.7698 27.4031 32.7698 27.128C32.7698 26.7528 32.8953 26.4027 33.1712 26.1276C33.4221 25.8525 33.7733 25.7025 34.1497 25.7025Z" fill="#2A2941"></path> <path d="M29.4331 35.8812C32.0924 35.8812 34.2249 33.7054 34.2249 31.0293C34.2249 28.3533 32.0673 26.1775 29.4331 26.1775C26.7988 26.1775 24.6412 28.3533 24.6412 31.0293C24.6412 33.7054 26.7988 35.8812 29.4331 35.8812Z" fill="#FEC34E"></path> <path fill-rule="evenodd" clip-rule="evenodd" d="M29.4331 25.7024C28.3794 25.6774 27.3508 25.9775 26.4476 26.5777C25.5695 27.1529 24.867 27.9782 24.4656 28.9536C24.0642 29.929 23.9388 31.0044 24.1395 32.0298C24.3402 33.0552 24.8419 34.0055 25.5946 34.7558C26.3472 35.5061 27.2755 36.0063 28.3292 36.2314C29.3578 36.4315 30.4366 36.3314 31.415 35.9313C32.3935 35.5311 33.2214 34.8559 33.8235 33.9805C34.4005 33.1052 34.7267 32.0798 34.7267 31.0294C34.7267 30.3291 34.6012 29.6539 34.3253 29.0036C34.0744 28.3534 33.673 27.7782 33.1963 27.278C32.7196 26.7778 32.1175 26.4026 31.4903 26.1275C30.8129 25.8524 30.1355 25.7274 29.4331 25.7024ZM29.4331 26.6277C30.3112 26.6277 31.1391 26.8778 31.8666 27.353C32.5942 27.8282 33.1461 28.5034 33.4723 29.3037C33.7984 30.104 33.8988 30.9794 33.7232 31.8297C33.5475 32.68 33.1461 33.4553 32.5189 34.0555C31.9168 34.6558 31.1391 35.0809 30.2861 35.256C29.4331 35.4311 28.555 35.331 27.7522 35.0059C26.9493 34.6808 26.272 34.1056 25.7953 33.4053C25.3186 32.68 25.0677 31.8547 25.0677 30.9794C25.0677 29.8289 25.5193 28.7035 26.3472 27.9032C27.1501 27.1029 28.279 26.6277 29.4331 26.6277Z" fill="#2A2941"></path> <path fill-rule="evenodd" clip-rule="evenodd" d="M27.6267 31.4294C27.702 31.6795 27.8024 31.9296 27.978 32.1297C28.1536 32.3298 28.3543 32.5048 28.6052 32.6049C28.8561 32.7299 29.1069 32.7799 29.3829 32.7799C29.6589 32.7799 29.9098 32.7299 30.1606 32.6049C30.4115 32.5048 30.6122 32.3298 30.7879 32.1297C30.9635 31.9296 31.0889 31.6795 31.1391 31.4294C31.2144 31.1793 31.2144 30.9042 31.1642 30.6541C31.114 30.404 31.0136 30.1539 30.8631 29.9288L29.2575 30.6791L27.6267 31.4294ZM31.1391 29.8038C31.2144 30.0539 31.3147 30.304 31.4903 30.5041C31.6659 30.7041 31.8666 30.8792 32.1175 30.9792C32.3684 31.1043 32.6193 31.1543 32.8953 31.1543C33.1712 31.1543 33.4221 31.1043 33.673 30.9792C33.9239 30.8792 34.1246 30.7041 34.3002 30.5041C34.4758 30.304 34.6013 30.0539 34.6514 29.8038C34.7267 29.5537 34.7267 29.2786 34.6765 29.0285C34.6263 28.7784 34.526 28.5283 34.3755 28.3032L32.7698 29.0535L31.1391 29.8038Z" fill="#2A2941"></path> <path fill-rule="evenodd" clip-rule="evenodd" d="M29.6087 30.3542L28.9313 32.7801H29.7341L30.6373 29.9041L29.6087 30.3542Z" fill="white"></path> <path fill-rule="evenodd" clip-rule="evenodd" d="M33.0709 28.8034L32.5189 30.8792L33.4221 30.8042L34.0995 28.3533L33.0709 28.8034Z" fill="white"></path> <path fill-rule="evenodd" clip-rule="evenodd" d="M30.9133 29.7289L29.1571 30.5292L27.4009 31.3545L27.4762 31.5046C27.6769 32.0298 28.0783 32.455 28.5801 32.68C29.0818 32.9301 29.6589 32.9551 30.2108 32.7801C30.1606 32.7051 30.1105 32.605 30.0603 32.53C29.8596 32.63 29.6338 32.68 29.408 32.68C29.1822 32.68 28.9313 32.63 28.7306 32.53C28.5048 32.4299 28.3292 32.3049 28.1787 32.1298C28.0281 31.9548 27.9027 31.7547 27.8525 31.5296L29.3076 30.8543L30.7126 30.2041C30.8129 30.1291 30.9133 30.0791 31.0387 30.029C31.1642 29.979 31.2645 29.929 31.39 29.904L32.7949 29.2537L34.25 28.5785C34.3755 28.7786 34.4507 29.0036 34.4758 29.2287C34.5009 29.4538 34.5009 29.6789 34.4256 29.904C34.3504 30.1291 34.25 30.3291 34.0995 30.5042C33.949 30.6793 33.7733 30.8043 33.5475 30.9044C33.5977 31.0044 33.6479 31.1044 33.673 31.2045C34.1497 30.9044 34.5009 30.4542 34.6514 29.904C34.802 29.3538 34.7267 28.7786 34.4507 28.3034L34.3755 28.1533L32.6193 28.9536L30.9133 29.7289Z" fill="#2A2941"></path> <path fill-rule="evenodd" clip-rule="evenodd" d="M38.4397 37.757L40.3715 26.2026L50.0054 33.0803L45.6401 38.7074L38.4397 37.757Z" fill="#A694FE"></path> <path fill-rule="evenodd" clip-rule="evenodd" d="M39.6691 24.427L37.2606 38.6074L46.0164 39.7078L51.4856 32.7802L39.6942 24.377L39.6691 24.427ZM38.4648 37.757L40.3966 26.2026L49.9803 33.0553L45.615 38.6824L38.4648 37.757Z" fill="#2A2941"></path> <path fill-rule="evenodd" clip-rule="evenodd" d="M41.927 41.0581L46.9196 41.7584L50.0054 37.8069L48.2242 44.9596L41.927 41.0581Z" fill="#A694FE"></path> <path fill-rule="evenodd" clip-rule="evenodd" d="M42.0525 40.0579L37.2606 39.3826L48.8514 46.5604L52.1379 33.3303L46.468 40.6831L42.0525 40.0579ZM41.927 41.0583L46.9196 41.7585L50.0054 37.782L48.2241 44.9597L41.927 41.0583Z" fill="#2A2941"></path> </g></svg>