<svg xmlns="http://www.w3.org/2000/svg" xmlns:xlink="http://www.w3.org/1999/xlink" viewBox="0,0,256,256" width="100px" height="100px"><g fill="#ffffff" fill-rule="nonzero" stroke="none" stroke-width="1" stroke-linecap="butt" stroke-linejoin="miter" stroke-miterlimit="10" stroke-dasharray="" stroke-dashoffset="0" font-family="none" font-weight="none" font-size="none" text-anchor="none" style="mix-blend-mode: normal"><g transform="scale(5.12,5.12)"><path d="M31.49414,5.15039l-25.56641,1.85156c-0.00782,0.00056 -0.01563,0.00121 -0.02344,0.00195c-0.01306,0.0017 -0.02608,0.00365 -0.03906,0.00586c-0.02422,0.00302 -0.04833,0.00693 -0.07227,0.01172c-0.0098,0.00246 -0.01957,0.00506 -0.0293,0.00781c-0.01111,0.00242 -0.02218,0.00502 -0.0332,0.00781c-0.02438,0.00689 -0.04848,0.01471 -0.07227,0.02344c-0.01579,0.00611 -0.03142,0.01263 -0.04687,0.01953c-0.00917,0.00377 -0.01829,0.00768 -0.02734,0.01172c-0.05252,0.02424 -0.10284,0.053 -0.15039,0.08594c-0.00854,0.00508 -0.01701,0.01029 -0.02539,0.01563c-0.02081,0.01548 -0.04101,0.03177 -0.06055,0.04883c-0.00394,0.00387 -0.00784,0.00778 -0.01172,0.01172c-0.01677,0.01443 -0.03305,0.02941 -0.04883,0.04492c-0.01001,0.01085 -0.01978,0.02192 -0.0293,0.0332c-0.01488,0.01645 -0.02921,0.03338 -0.04297,0.05078c-0.00529,0.00645 -0.0105,0.01296 -0.01562,0.01953c-0.01511,0.02028 -0.02944,0.04113 -0.04297,0.0625c-0.00398,0.00647 -0.00789,0.01298 -0.01172,0.01953c-0.01316,0.02102 -0.02554,0.04252 -0.03711,0.06445c-0.0047,0.00904 -0.00925,0.01816 -0.01367,0.02734c-0.0107,0.0237 -0.02047,0.04781 -0.0293,0.07227c-0.00131,0.0026 -0.00262,0.0052 -0.00391,0.00781c-0.02016,0.05648 -0.03519,0.11466 -0.04492,0.17383c-0.00212,0.01038 -0.00407,0.0208 -0.00586,0.03125c-0.00368,0.02658 -0.00628,0.05329 -0.00781,0.08008c0,0.0013 0,0.0026 0,0.00391c-0.00115,0.01821 -0.0018,0.03644 -0.00195,0.05469v25.73828c0,1.02563 0.31515,2.02858 0.9043,2.86914c0.0154,0.02213 0.03169,0.04364 0.04883,0.06445l6.17383,7.42969c0.05957,0.10721 0.13836,0.20254 0.23242,0.28125l0.39063,0.46875c0.04959,0.05972 0.10596,0.11347 0.16797,0.16016c0.58711,0.56967 1.3992,0.90584 2.27539,0.84961l27,-1.74219c1.56907,-0.10142 2.80664,-1.42211 2.80664,-2.99414v-25.99219c0,-0.92346 -0.43448,-1.74214 -1.0957,-2.29297c-0.0468,-0.05359 -0.09918,-0.10205 -0.15625,-0.14453l-0.48437,-0.35742c-0.06058,-0.0577 -0.12817,-0.10757 -0.20117,-0.14844l-8.23828,-6.07617c-0.95915,-0.70779 -2.14151,-1.04913 -3.33008,-0.96289zM31.63867,7.14453c0.71344,-0.05176 1.42319,0.15392 1.99805,0.57813l6.13086,4.52344l-25.02539,1.63867c-0.86162,0.05624 -1.7045,-0.26257 -2.31641,-0.87305h-0.00195l-4.16992,-4.17188zM7,10.41406l4.01172,4.01172l0.98828,0.98828v25.4043l-4.46094,-5.36914c-0.34913,-0.50173 -0.53906,-1.09795 -0.53906,-1.71094zM41.93555,14.13477c0.5912,-0.03794 1.06445,0.40639 1.06445,0.99805v25.99219c0,0.53597 -0.40062,0.96347 -0.93555,0.99805l-27,1.74219c-0.2936,0.01884 -0.5581,-0.08175 -0.75,-0.25977c-0.00065,-0.00065 -0.0013,-0.0013 -0.00195,-0.00195l-0.00195,-0.00195c-0.00408,-0.00383 -0.00575,-0.00977 -0.00977,-0.01367c-0.00386,-0.00525 -0.00776,-0.01045 -0.01172,-0.01562c-0.17682,-0.17883 -0.28906,-0.42283 -0.28906,-0.70508v-25.99219c0,-0.53746 0.39999,-0.96343 0.93555,-0.99805zM38.49609,19l-5.07422,0.28125c-0.774,0.08 -1.67578,0.65675 -1.67578,1.59375l2.25,0.1875v10.69141l-7.78125,-12.00195l-5.83203,0.32813c-1.091,0.08 -1.38867,0.89088 -1.38867,1.92188h2.25v15.56445c0,0 -1.0523,0.284 -1.4043,0.375c-0.748,0.193 -0.8457,0.8435 -0.8457,1.3125c0,0 3.75252,-0.18836 5.47852,-0.31836c1.959,-0.15 2.02344,-1.46289 2.02344,-1.46289l-2.25,-0.46875v-11.5332c0,0 5.71975,9.18963 7.46875,11.89063c0.823,1.269 1.43753,1.51758 2.51953,1.51758c0.888,0 1.72777,-0.26231 2.75977,-0.82031v-17.36133c0,0 0.19006,-0.01012 0.78906,-0.20312c0.683,-0.221 0.71289,-0.83814 0.71289,-1.49414z"></path></g></g></svg>